<svg width="218" height="80" viewBox="0 0 218 80" fill="none" xmlns="http://www.w3.org/2000/svg">
<rect width="218" height="80" rx="40" fill="#00CC96" fill-opacity="0.1"/>
<path d="M84.464 20.107C84.342 20.122 83.977 20.163 83.516 20.21C83.196 20.243 82.884 20.269 82.675 20.286C82.259 19.529 81.521 19 80.599 19C79.874 19 79.285 19.225 78.79 19.843C78.375 20.362 78.105 21.078 77.842 21.45C75.701 24.484 72.289 25.014 68.289 25.014C67.367 25.014 66.473 24.9 65.61 24.702C65.471 24.67 65.335 24.81 65.398 24.938C67.016 28.211 70.874 30.576 74.008 31.094V35.141H74.921V31.19C75.012 31.194 75.105 31.204 75.194 31.204C75.758 31.208 76.266 31.163 76.748 31.092V35.141H77.661V30.904C79.14 30.501 80.236 29.7 81.186 28.544C82.331 27.151 82.999 24.676 83.039 22.267C83.189 22.114 83.533 21.754 83.765 21.442C84.299 20.728 84.717 20.075 84.464 20.107ZM80.807 21.708C80.431 21.708 80.126 21.403 80.126 21.027C80.126 20.651 80.431 20.346 80.807 20.346C81.183 20.346 81.488 20.651 81.488 21.027C81.488 21.403 81.183 21.708 80.807 21.708Z" fill="#00CC96"/>
<path d="M78.181 35.134V56.048H73.341V47.473H63.84V56.048H59V35.134H63.84V43.38H73.341V35.134H78.181Z" fill="#00CC96"/>
<path d="M98.766 39.974L91.506 57.034C89.952 60.918 87.741 62.083 84.843 62.083C83.199 62.083 81.408 61.545 80.363 60.619L82.066 57.303C82.782 57.93 83.768 58.319 84.694 58.319C85.979 58.319 86.696 57.752 87.323 56.318L87.384 56.169L80.422 39.974H85.232L89.743 50.879L94.284 39.974H98.766Z" fill="#00CC96"/>
<path d="M116.811 39.9739V53.3589C116.811 59.3349 113.584 62.0829 107.789 62.0829C104.741 62.0829 101.784 61.3359 99.901 59.8719L101.754 56.5259C103.128 57.6309 105.369 58.3479 107.431 58.3479C110.717 58.3479 112.152 56.8539 112.152 53.9559V53.2689C110.926 54.6129 109.164 55.2699 107.073 55.2699C102.621 55.2699 99.036 52.1929 99.036 47.5019C99.036 42.8119 102.621 39.7339 107.073 39.7339C109.313 39.7339 111.166 40.4809 112.39 42.0339V39.9739H116.811ZM112.21 47.5029C112.21 45.1429 110.447 43.5599 107.997 43.5599C105.547 43.5599 103.755 45.1429 103.755 47.5029C103.755 49.8629 105.547 51.4469 107.997 51.4469C110.447 51.4469 112.21 49.8629 112.21 47.5029Z" fill="#00CC96"/>
<path d="M137.724 39.9739V53.3589C137.724 59.3349 134.497 62.0829 128.702 62.0829C125.654 62.0829 122.697 61.3359 120.814 59.8719L122.667 56.5259C124.041 57.6309 126.282 58.3479 128.344 58.3479C131.63 58.3479 133.065 56.8539 133.065 53.9559V53.2689C131.839 54.6129 130.077 55.2699 127.986 55.2699C123.534 55.2699 119.949 52.1929 119.949 47.5019C119.949 42.8119 123.534 39.7339 127.986 39.7339C130.226 39.7339 132.079 40.4809 133.303 42.0339V39.9739H137.724ZM133.123 47.5029C133.123 45.1429 131.36 43.5599 128.91 43.5599C126.46 43.5599 124.668 45.1429 124.668 47.5029C124.668 49.8629 126.46 51.4469 128.91 51.4469C131.36 51.4469 133.123 49.8629 133.123 47.5029Z" fill="#00CC96"/>
<path d="M157.712 49.326H145.552C146 51.327 147.703 52.553 150.154 52.553C151.856 52.553 153.082 52.045 154.187 50.999L156.666 53.688C155.172 55.391 152.932 56.288 150.033 56.288C144.476 56.288 140.861 52.792 140.861 48.012C140.861 43.201 144.536 39.736 149.435 39.736C154.156 39.736 157.801 42.903 157.801 48.071C157.802 48.429 157.741 48.937 157.712 49.326ZM145.492 46.607H153.409C153.081 44.575 151.557 43.261 149.466 43.261C147.345 43.261 145.821 44.545 145.492 46.607Z" fill="#00CC96"/>
</svg>
