<svg width="32" height="28" viewBox="0 0 32 28" fill="none" xmlns="http://www.w3.org/2000/svg">
<path d="M9.27262 26C9.77469 26 10.1817 25.5949 10.1817 25.0952C10.1817 24.5955 9.77469 24.1904 9.27262 24.1904C8.77054 24.1904 8.36353 24.5955 8.36353 25.0952C8.36353 25.5949 8.77054 26 9.27262 26Z" fill="black" stroke="black" stroke-width="2" stroke-linecap="round" stroke-linejoin="round"/>
<path d="M19.2726 26C19.7747 26 20.1817 25.5949 20.1817 25.0952C20.1817 24.5955 19.7747 24.1904 19.2726 24.1904C18.7705 24.1904 18.3635 24.5955 18.3635 25.0952C18.3635 25.5949 18.7705 26 19.2726 26Z" fill="black" stroke="black" stroke-width="2" stroke-linecap="round" stroke-linejoin="round"/>
<path d="M2 7H5.63636L8.07273 19.1148C8.15586 19.5313 8.38355 19.9055 8.71595 20.1718C9.04835 20.4381 9.46427 20.5796 9.89091 20.5714H18.7273C19.1539 20.5796 19.5698 20.4381 19.9022 20.1718C20.2346 19.9055 20.4623 19.5313 20.5455 19.1148L22 11.5238H6.54545" stroke="black" stroke-width="2" stroke-linecap="round" stroke-linejoin="round"/>
<circle cx="24" cy="8" r="7" fill="#FF66A0" stroke="white" stroke-width="2"/>
</svg>
