<svg width="24" height="24" viewBox="0 0 24 24" fill="none" xmlns="http://www.w3.org/2000/svg">
<path d="M16.5 3H7.5C5.01472 3 3 5.01472 3 7.5V16.5C3 18.9853 5.01472 21 7.5 21H16.5C18.9853 21 21 18.9853 21 16.5V7.5C21 5.01472 18.9853 3 16.5 3Z" stroke="black" stroke-width="2" stroke-linecap="round" stroke-linejoin="round"/>
<path d="M15.6 11.4323C15.7111 12.1813 15.5832 12.9463 15.2344 13.6184C14.8857 14.2905 14.3339 14.8356 13.6575 15.176C12.9811 15.5164 12.2146 15.6349 11.467 15.5146C10.7194 15.3943 10.0288 15.0414 9.49338 14.5059C8.95795 13.9705 8.60499 13.2799 8.48469 12.5323C8.36439 11.7847 8.48289 11.0182 8.82332 10.3418C9.16376 9.66546 9.7088 9.11366 10.3809 8.76491C11.053 8.41616 11.818 8.28822 12.567 8.39929C13.3311 8.51259 14.0384 8.86861 14.5846 9.41477C15.1307 9.96093 15.4867 10.6683 15.6 11.4323Z" stroke="black" stroke-width="2" stroke-linecap="round" stroke-linejoin="round"/>
<path d="M16.95 7.05029H16.9583" stroke="black" stroke-width="2" stroke-linecap="round" stroke-linejoin="round"/>
</svg>
