<svg width="24" height="24" viewBox="0 0 24 24" fill="none" xmlns="http://www.w3.org/2000/svg">
<path fill-rule="evenodd" clip-rule="evenodd" d="M3 10.9999C3 6.58168 6.58171 3 11 3C15.4183 3 19 6.58168 19 10.9999C19 15.4181 15.4183 18.9997 11 18.9997C6.58171 18.9997 3 15.4181 3 10.9999ZM11 1C5.47717 1 1 5.47708 1 10.9999C1 16.5227 5.47717 20.9997 11 20.9997C13.4012 20.9997 15.6047 20.1534 17.3286 18.7428L21.293 22.7071C21.6835 23.0976 22.3167 23.0976 22.7072 22.7071C23.0977 22.3166 23.0977 21.6834 22.7072 21.2929L18.7428 17.3286C20.1536 15.6048 21 13.4012 21 10.9999C21 5.47708 16.5228 1 11 1ZM11 6.99988C11.5523 6.99988 12 7.44759 12 7.99988V9.99988H14C14.5523 9.99988 15 10.4476 15 10.9999C15 11.5522 14.5523 11.9999 14 11.9999H12V13.9998C12 14.5521 11.5523 14.9998 11 14.9998C10.4477 14.9998 10 14.5521 10 13.9998V11.9999H8C7.44772 11.9999 7 11.5522 7 10.9999C7 10.4476 7.44772 9.99988 8 9.99988H10V7.99988C10 7.44759 10.4477 6.99988 11 6.99988Z" fill="black"/>
</svg>
