<svg width="218" height="80" viewBox="0 0 218 80" fill="none" xmlns="http://www.w3.org/2000/svg">
<rect x="1" y="1" width="216" height="78" rx="39" stroke="#1E1E27" stroke-width="2"/>
<path d="M106.521 31.053V51.967H101.681V43.392H92.18V51.967H87.34V31.053H92.18V39.299H101.681V31.053H106.521Z" fill="white"/>
<path d="M127.106 35.893L119.846 52.953C118.292 56.837 116.081 58.002 113.183 58.002C111.539 58.002 109.748 57.464 108.703 56.538L110.406 53.222C111.122 53.849 112.108 54.238 113.034 54.238C114.319 54.238 115.036 53.671 115.663 52.237L115.724 52.088L108.762 35.893H113.572L118.083 46.798L122.625 35.893H127.106V35.893Z" fill="white"/>
<path d="M145.151 35.893V49.278C145.151 55.254 141.924 58.002 136.129 58.002C133.081 58.002 130.124 57.255 128.241 55.791L130.094 52.445C131.468 53.55 133.709 54.267 135.771 54.267C139.057 54.267 140.492 52.773 140.492 49.875V49.188C139.266 50.532 137.504 51.189 135.413 51.189C130.961 51.189 127.376 48.112 127.376 43.421C127.376 38.731 130.961 35.653 135.413 35.653C137.653 35.653 139.506 36.4 140.73 37.953V35.893H145.151ZM140.55 43.422C140.55 41.062 138.787 39.479 136.337 39.479C133.887 39.479 132.095 41.062 132.095 43.422C132.095 45.782 133.887 47.366 136.337 47.366C138.787 47.366 140.55 45.782 140.55 43.422Z" fill="white"/>
<path d="M166.064 35.893V49.278C166.064 55.254 162.837 58.002 157.042 58.002C153.994 58.002 151.037 57.255 149.154 55.791L151.007 52.445C152.381 53.55 154.622 54.267 156.684 54.267C159.97 54.267 161.405 52.773 161.405 49.875V49.188C160.179 50.532 158.417 51.189 156.326 51.189C151.874 51.189 148.289 48.112 148.289 43.421C148.289 38.731 151.874 35.653 156.326 35.653C158.566 35.653 160.419 36.4 161.643 37.953V35.893H166.064ZM161.463 43.422C161.463 41.062 159.7 39.479 157.25 39.479C154.8 39.479 153.008 41.062 153.008 43.422C153.008 45.782 154.8 47.366 157.25 47.366C159.701 47.366 161.463 45.782 161.463 43.422Z" fill="white"/>
<path d="M186.052 45.245H173.892C174.34 47.246 176.043 48.472 178.494 48.472C180.196 48.472 181.422 47.964 182.527 46.918L185.006 49.607C183.512 51.31 181.272 52.207 178.373 52.207C172.816 52.207 169.201 48.711 169.201 43.931C169.201 39.12 172.876 35.655 177.775 35.655C182.496 35.655 186.141 38.822 186.141 43.99C186.142 44.348 186.081 44.856 186.052 45.245ZM173.832 42.526H181.749C181.421 40.494 179.897 39.18 177.806 39.18C175.685 39.18 174.161 40.464 173.832 42.526Z" fill="white"/>
<path d="M74.88 40.44C74.88 28.599 65.281 19 53.44 19C41.599 19 32 28.599 32 40.44C32 45.826 34.001 50.735 37.28 54.501V38.897H44.698V48.848H53.579V38.897H60.997V60.484C69.104 57.425 74.88 49.617 74.88 40.44Z" fill="#00CC96"/>
<path d="M44.698 54.589V60.004C47.37 61.2 50.323 61.88 53.44 61.88C53.487 61.88 53.533 61.873 53.58 61.873V54.589H44.698Z" fill="#00CC96"/>
<path d="M53.58 38.897V48.848H44.699V38.897H37.28V54.501C39.313 56.835 41.836 58.723 44.698 60.004V54.589H53.579V61.873C56.192 61.856 58.685 61.356 60.997 60.484V38.897H53.58Z" fill="white"/>
<path d="M64.884 26.129C64.778 26.142 64.46 26.177 64.058 26.219C63.779 26.248 63.507 26.271 63.324 26.285C62.961 25.625 62.318 25.164 61.514 25.164C60.882 25.164 60.368 25.36 59.937 25.899C59.575 26.351 59.34 26.975 59.111 27.3C57.245 29.945 54.27 30.407 50.783 30.407C49.979 30.407 49.2 30.308 48.448 30.135C48.327 30.107 48.208 30.229 48.263 30.341C49.674 33.194 53.037 35.256 55.769 35.708V38.859H56.565V35.791C56.644 35.795 56.725 35.803 56.803 35.804C57.295 35.807 57.738 35.768 58.158 35.706V38.859H58.954V35.542C60.243 35.191 61.199 34.492 62.027 33.485C63.025 32.271 63.608 30.113 63.643 28.013C63.773 27.88 64.074 27.565 64.276 27.294C64.74 26.67 65.104 26.101 64.884 26.129ZM61.712 27.533C61.37 27.533 61.093 27.256 61.093 26.914C61.093 26.572 61.37 26.295 61.712 26.295C62.054 26.295 62.331 26.572 62.331 26.914C62.331 27.256 62.054 27.533 61.712 27.533Z" fill="white"/>
</svg>
