<svg width="218" height="80" viewBox="0 0 218 80" fill="none" xmlns="http://www.w3.org/2000/svg">
<rect width="218" height="80" rx="40" fill="white"/>
<path d="M84.464 20.107C84.342 20.122 83.977 20.163 83.516 20.21C83.196 20.243 82.884 20.269 82.675 20.286C82.259 19.529 81.521 19 80.599 19C79.874 19 79.285 19.225 78.79 19.843C78.375 20.362 78.105 21.078 77.842 21.45C75.701 24.484 72.289 25.014 68.289 25.014C67.367 25.014 66.473 24.9 65.61 24.702C65.471 24.67 65.335 24.81 65.398 24.938C67.016 28.211 70.874 30.576 74.008 31.094V35.141H74.921V31.19C75.012 31.194 75.105 31.204 75.194 31.204C75.758 31.208 76.266 31.163 76.748 31.092V35.141H77.661V30.904C79.14 30.501 80.236 29.7 81.186 28.544C82.331 27.151 82.999 24.676 83.039 22.267C83.189 22.114 83.533 21.754 83.765 21.442C84.299 20.728 84.717 20.075 84.464 20.107ZM80.807 21.708C80.431 21.708 80.126 21.403 80.126 21.027C80.126 20.651 80.431 20.346 80.807 20.346C81.183 20.346 81.488 20.651 81.488 21.027C81.488 21.403 81.183 21.708 80.807 21.708Z" fill="black"/>
<path d="M78.181 35.134V56.048H73.341V47.473H63.84V56.048H59V35.134H63.84V43.38H73.341V35.134H78.181Z" fill="black"/>
<path d="M98.766 39.974L91.506 57.034C89.952 60.918 87.741 62.083 84.843 62.083C83.199 62.083 81.408 61.545 80.363 60.619L82.066 57.303C82.782 57.93 83.768 58.319 84.694 58.319C85.979 58.319 86.696 57.752 87.323 56.318L87.384 56.169L80.422 39.974H85.232L89.743 50.879L94.284 39.974H98.766Z" fill="black"/>
<path d="M116.811 39.974V53.359C116.811 59.335 113.584 62.083 107.789 62.083C104.741 62.083 101.784 61.336 99.901 59.872L101.754 56.526C103.128 57.631 105.369 58.348 107.431 58.348C110.717 58.348 112.152 56.854 112.152 53.956V53.269C110.926 54.613 109.164 55.27 107.073 55.27C102.621 55.27 99.036 52.193 99.036 47.502C99.036 42.812 102.621 39.734 107.073 39.734C109.313 39.734 111.166 40.481 112.39 42.034V39.974H116.811ZM112.21 47.503C112.21 45.143 110.447 43.56 107.997 43.56C105.547 43.56 103.755 45.143 103.755 47.503C103.755 49.863 105.547 51.447 107.997 51.447C110.447 51.447 112.21 49.863 112.21 47.503Z" fill="black"/>
<path d="M137.724 39.974V53.359C137.724 59.335 134.497 62.083 128.702 62.083C125.654 62.083 122.697 61.336 120.814 59.872L122.667 56.526C124.041 57.631 126.282 58.348 128.344 58.348C131.63 58.348 133.065 56.854 133.065 53.956V53.269C131.839 54.613 130.077 55.27 127.986 55.27C123.534 55.27 119.949 52.193 119.949 47.502C119.949 42.812 123.534 39.734 127.986 39.734C130.226 39.734 132.079 40.481 133.303 42.034V39.974H137.724ZM133.123 47.503C133.123 45.143 131.36 43.56 128.91 43.56C126.46 43.56 124.668 45.143 124.668 47.503C124.668 49.863 126.46 51.447 128.91 51.447C131.36 51.447 133.123 49.863 133.123 47.503Z" fill="black"/>
<path d="M157.712 49.3261H145.552C146 51.3271 147.703 52.5531 150.154 52.5531C151.856 52.5531 153.082 52.0451 154.187 50.9991L156.666 53.6881C155.172 55.3911 152.932 56.2881 150.033 56.2881C144.476 56.2881 140.861 52.7921 140.861 48.0121C140.861 43.2011 144.536 39.7361 149.435 39.7361C154.156 39.7361 157.801 42.9031 157.801 48.0711C157.802 48.4291 157.741 48.9371 157.712 49.3261ZM145.492 46.6071H153.409C153.081 44.5751 151.557 43.2611 149.466 43.2611C147.345 43.2611 145.821 44.5451 145.492 46.6071Z" fill="black"/>
</svg>
